<svg xmlns="http://www.w3.org/2000/svg" version="1.1" xmlnsXlink="http://www.w3.org/1999/xlink" xmlnsSvgjs="http://svgjs.dev/svgjs" width="100%" height="100%" viewBox="0 0 1000 600"><rect width="1000" height="600" x="0" y="0" fill="#2b3252"/><g><rect width="333.3333333333333" height="333.3333333333333" y="77.77777014838344" fill="#fad744" transform="matrix(2.2499999313354513,0,0,2.2499999313354517,0,-249.99999084472722)" x="55.55555725097656"/><path d="M160.6884100767165 319.4444410536023L158.09179173517919 315.5193203047668L207.21618756868207 169.4444419750268L237.228264679009 169.4444419750268L286.3526605125119 315.5193203047668L283.7560421709746 319.4444410536023L268.7500036158111 319.4444410536023L256.34058340218496 281.61231568213384L188.1038688455061 281.61231568213384L175.69444863187996 319.4444410536023L160.6884100767165 319.4444410536023ZM219.62560778230818 185.96014235666544L193.5386514208168 265.0966153004953L250.90580082687427 265.0966153004953L224.81884446538288 185.96014235666544L219.62560778230818 185.96014235666544Z " fill="#2b3252" transform="matrix(2.2499999313354513,0,0,2.2499999313354517,0,-249.99999084472722)"/><path d="MNaN 244.44444105360233 " fill="#282c34dc" transform="matrix(2.2499999313354513,0,0,2.2499999313354517,0,-249.99999084472722)"/></g></svg>